<?xml version="1.0" encoding="UTF-8" standalone="no"?>
<svg
   xmlns:dc="http://purl.org/dc/elements/1.1/"
   xmlns:cc="http://creativecommons.org/ns#"
   xmlns:rdf="http://www.w3.org/1999/02/22-rdf-syntax-ns#"
   xmlns:svg="http://www.w3.org/2000/svg"
   xmlns="http://www.w3.org/2000/svg"
   xmlns:sodipodi="http://sodipodi.sourceforge.net/DTD/sodipodi-0.dtd"
   xmlns:inkscape="http://www.inkscape.org/namespaces/inkscape"
   xmlnsDc="http://purl.org/dc/elements/1.1/"
   xmlnsCc="http://creativecommons.org/ns#"
   xmlnsRdf="http://www.w3.org/1999/02/22-rdf-syntax-ns#"
   xmlnsSvg="http://www.w3.org/2000/svg"
   xmlnsSodipodi="http://sodipodi.sourceforge.net/DTD/sodipodi-0.dtd"
   xmlnsInkscape="http://www.inkscape.org/namespaces/inkscape"
   width="593.89618"
   height="111.83659"
   viewBox="0 0 157.13503 29.590098"
   version="1.1"
   id="svg8"
   sodipodi:docname="arrow_reversed_2.svg"
   inkscape:version="1.0.2 (e86c8708, 2021-01-15)">
  <sodipodi:namedview
     pagecolor="#ffffff"
     bordercolor="#666666"
     borderopacity="1"
     objecttolerance="10"
     gridtolerance="10"
     guidetolerance="10"
     inkscape:pageopacity="0"
     inkscape:pageshadow="2"
     inkscape:window-width="1436"
     inkscape:window-height="688"
     id="namedview15"
     showgrid="false"
     inkscape:zoom="1.1853924"
     inkscape:cx="113.63728"
     inkscape:cy="22.174196"
     inkscape:window-x="350"
     inkscape:window-y="191"
     inkscape:window-maximized="0"
     inkscape:current-layer="layer1"
     inkscape:document-rotation="0" />
  <sodipodiNamedview
     pagecolor="#ffffff"
     bordercolor="#666666"
     borderopacity="1"
     objecttolerance="10"
     gridtolerance="10"
     guidetolerance="10"
     inkscapePageopacity="0"
     inkscapePageshadow="2"
     inkscapeWindow-width="1546"
     inkscapeWindow-height="796"
     id="namedview15"
     showgrid="false"
     units="px"
     fit-margin-top="0"
     fit-margin-left="0"
     fit-margin-right="0"
     fit-margin-bottom="0"
     inkscapeZoom="0.74118967"
     inkscapeCx="304.4106"
     inkscapeCy="-110.78445"
     inkscapeWindow-x="171"
     inkscapeWindow-y="413"
     inkscapeWindow-maximized="0"
     inkscapeCurrent-layer="svg8" />
  <sodipodiNamedview
     pagecolor="#ffffff"
     bordercolor="#666666"
     borderopacity="1"
     objecttolerance="10"
     gridtolerance="10"
     guidetolerance="10"
     inkscapePageopacity="0"
     inkscapePageshadow="2"
     inkscapeWindow-width="1196"
     inkscapeWindow-height="762"
     id="namedview15"
     showgrid="false"
     inkscapeZoom="0.74118967"
     inkscapeCx="396.85039"
     inkscapeCy="453.32526"
     inkscapeWindow-x="120"
     inkscapeWindow-y="320"
     inkscapeWindow-maximized="0"
     inkscapeCurrent-layer="layer1" />
  <defs
     id="defs2" />
  <sodipodiNamedview
     id="base"
     pagecolor="#ffffff"
     bordercolor="#666666"
     borderopacity="1.0"
     inkscapePageopacity="0.0"
     inkscapePageshadow="2"
     inkscapeZoom="0.45254834"
     inkscapeCx="39.86606"
     inkscapeCy="274.30826"
     inkscapeDocument-units="mm"
     inkscapeCurrent-layer="layer1"
     inkscapeDocument-rotation="0"
     showgrid="false"
     inkscapeWindow-width="1252"
     inkscapeWindow-height="970"
     inkscapeWindow-x="0"
     inkscapeWindow-y="25"
     inkscapeWindow-maximized="0" />
  <metadata
     id="metadata5">
    <rdfRDF>
      <ccWork
         rdfAbout="">
        <dcFormat>image/svg+xml</dcFormat>
        <dcType
           rdfResource="http://purl.org/dc/dcmitype/StillImage" />
        <dcTitle />
      </ccWork>
    </rdfRDF>
    <rdfRDF>
      <ccWork
         rdfAbout="">
        <dcFormat>image/svg+xml</dcFormat>
        <dcType
           rdfResource="http://purl.org/dc/dcmitype/StillImage" />
      </ccWork>
    </rdfRDF>
    <rdfRDF>
      <ccWork
         rdfAbout="">
        <dcFormat>image/svg+xml</dcFormat>
        <dcType
           rdfResource="http://purl.org/dc/dcmitype/StillImage" />
        <dcTitle />
      </ccWork>
    </rdfRDF>
    <rdf:RDF>
      <cc:Work
         rdf:about="">
        <dc:format>image/svg+xml</dc:format>
        <dc:type
           rdf:resource="http://purl.org/dc/dcmitype/StillImage" />
        <dc:title></dc:title>
      </cc:Work>
    </rdf:RDF>
  </metadata>
  <g
     inkscapeLabel="Layer 1"
     inkscapeGroupmode="layer"
     id="layer1"
     transform="translate(-12.499495,-120.69633)">
    <path
       id="path25"
       style="fill-rule:evenodd;stroke-width:0.10996"
       d="m 139.19047,150.28626 c 2.3235,-0.005 4.79464,-0.13319 8.71316,-0.48266 2.4473,-0.21826 4.89771,-0.49303 7.3055,-0.98236 2.6369,-0.53589 7.33212,-1.96601 9.68313,-3.70004 1.07164,-0.79041 1.80047,-1.96271 2.70061,-2.944 0.50955,-1.1434 1.20053,-2.22223 1.52859,-3.43028 1.01533,-3.73885 0.41267,-7.94599 -0.83819,-11.53522 -0.38367,-1.10092 -0.94048,-2.13404 -1.41077,-3.20084 l -7.27087,-3.31452 c 0.50793,1.03821 1.10441,2.03737 1.52342,3.11454 1.33028,3.41972 1.9747,7.41405 1.05936,11.03653 -0.28637,1.13334 -0.90493,2.15562 -1.35754,3.2334 -0.81329,0.92705 -1.47007,2.01979 -2.44016,2.78122 -2.2453,1.76235 -6.43912,3.22227 -9.03097,3.83904 -8.53053,2.02996 -17.43125,1.96356 -26.11934,1.50792 -10.45154,-1.31725 -12.94986,-1.30314 -23.361877,-4.00234 -3.896977,-1.01025 -7.70944,-2.3243 -11.54865,-3.5357 -10.415653,-3.2865 -20.687865,-7.11761 -31.36966,-9.49244 -5.197589,-0.7527 -9.912045,-1.67976 -15.179437,-1.54823 -2.081347,0.052 -4.199429,0.46824 -6.237861,1.11053 l -4.180623,-5.45858 -9.429398,7.18664 -9.429399,7.18612 15.718936,1.02526 15.718938,1.02526 -4.102076,-5.35574 c 0.275437,-0.13061 0.640638,-0.27397 1.318268,-0.53537 2.240563,-0.86432 4.554347,-1.59119 6.982518,-1.72031 5.260964,-0.27975 9.165783,0.5448 14.414624,1.27073 10.403929,2.28997 20.451404,5.87029 30.599165,9.04699 3.833312,1.2 7.636582,2.51363 11.528492,3.50728 9.89934,2.5274 13.53299,2.69903 23.52053,3.99252 5.26096,0.18579 8.00422,0.38145 10.99158,0.37465 z" 
       />
  </g>
</svg>
