<?xml version="1.0" standalone="no"?>
<!DOCTYPE svg PUBLIC "-//W3C//DTD SVG 20010904//EN"
 "http://www.w3.org/TR/2001/REC-SVG-20010904/DTD/svg10.dtd">
<svg version="1.0" xmlns="http://www.w3.org/2000/svg"
 width="150.000000pt" height="150.000000pt" viewBox="0 0 150.000000 150.000000"
 preserveAspectRatio="xMidYMid meet">

<g transform="translate(0.000000,150.000000) scale(0.100000,-0.100000)"
fill="#000000" stroke="none">
<path d="M444 1467 c-184 -75 -341 -233 -420 -424 -22 -55 -24 -70 -24 -264 0
-162 3 -215 16 -252 l16 -47 21 42 c32 62 76 88 149 88 78 0 123 -24 190 -101
108 -126 128 -146 175 -171 77 -41 106 -46 57 -10 -91 67 -174 177 -174 233 0
37 27 43 85 19 32 -13 64 -20 77 -16 30 8 128 101 128 122 0 8 13 26 28 39 41
34 101 159 111 230 8 53 9 55 10 19 2 -59 -42 -204 -94 -309 -40 -82 -41 -87
-15 -56 39 46 95 162 115 236 20 77 20 205 0 273 -19 62 -77 132 -109 132 -12
0 -39 17 -60 39 -20 21 -60 49 -88 62 -46 22 -49 24 -27 30 45 13 204 9 264
-6 297 -75 496 -344 457 -617 -20 -138 -101 -272 -194 -319 -20 -10 -75 -28
-120 -38 -152 -36 -295 -115 -317 -177 -22 -62 -105 -106 -201 -108 -157 -3
38 -56 205 -56 130 -1 199 15 310 70 142 69 260 190 329 333 54 111 69 190 63
332 -3 104 -8 132 -37 209 -78 210 -235 367 -434 433 -72 24 -96 27 -221 27
-124 0 -149 -3 -218 -26 -156 -52 -309 -171 -391 -306 -22 -34 -41 -60 -44
-57 -11 11 68 124 137 197 113 119 231 186 376 213 l70 13 -60 1 c-46 0 -79
-7 -141 -32z m380 -402 c5 -23 0 -53 -14 -92 -48 -134 -52 -152 -40 -186 10
-30 9 -34 -20 -58 -16 -14 -30 -31 -30 -37 0 -7 -11 -12 -24 -12 -30 0 -42
-16 -27 -34 16 -19 -41 -66 -78 -66 -30 0 -79 33 -124 81 -22 25 -34 30 -57
27 -40 -6 -38 6 3 23 17 7 50 24 71 37 30 18 36 26 25 33 -28 17 -48 8 -106
-49 -57 -56 -99 -83 -155 -96 -38 -9 -35 9 4 25 18 7 63 42 100 77 58 55 66
67 56 80 -11 13 -10 15 4 9 13 -5 27 6 52 41 68 91 68 91 47 37 -10 -27 -22
-57 -25 -67 -11 -24 24 -31 88 -18 120 25 217 142 219 263 1 41 3 46 13 32 7
-9 15 -31 18 -50z"/>
<path d="M860 1486 c139 -30 249 -89 355 -188 243 -227 304 -590 148 -878 -68
-126 -147 -210 -275 -295 -65 -42 -75 -54 -25 -29 194 99 347 300 391 516 52
250 -27 503 -214 688 -118 117 -259 190 -380 196 l-65 4 65 -14z"/>
<path d="M918 813 c-8 -56 -50 -186 -79 -245 -11 -21 -17 -38 -14 -38 3 0 23
36 45 81 42 87 63 168 58 221 -3 28 -4 25 -10 -19z"/>
<path d="M405 385 c7 -21 22 -93 29 -135 2 -14 2 1 0 32 -2 31 -11 72 -19 90
-8 18 -13 24 -10 13z"/>
</g>
</svg>
