<?xml version="1.0" encoding="UTF-8" standalone="no"?>
<svg
   xmlns:dc="http://purl.org/dc/elements/1.1/"
   xmlns:cc="http://creativecommons.org/ns#"
   xmlns:rdf="http://www.w3.org/1999/02/22-rdf-syntax-ns#"
   xmlns:svg="http://www.w3.org/2000/svg"
   xmlns="http://www.w3.org/2000/svg"
   xmlns:sodipodi="http://sodipodi.sourceforge.net/DTD/sodipodi-0.dtd"
   xmlns:inkscape="http://www.inkscape.org/namespaces/inkscape"
   width="2433"
   height="2500"
   viewBox="0 0 256 263"
   preserveAspectRatio="xMinYMin meet"
   version="1.1"
   id="svg835"
   sodipodi:docname="unity.svg"
   inkscape:version="1.0.2 (e86c8708, 2021-01-15)">
  <metadata
     id="metadata841">
    <rdf:RDF>
      <cc:Work
         rdf:about="">
        <dc:format>image/svg+xml</dc:format>
        <dc:type
           rdf:resource="http://purl.org/dc/dcmitype/StillImage" />
      </cc:Work>
    </rdf:RDF>
  </metadata>
  <defs
     id="defs839" />
  <sodipodi:namedview
     pagecolor="#ffffff"
     bordercolor="#666666"
     borderopacity="1"
     objecttolerance="10"
     gridtolerance="10"
     guidetolerance="10"
     inkscape:pageopacity="0"
     inkscape:pageshadow="2"
     inkscape:window-width="820"
     inkscape:window-height="480"
     id="namedview837"
     showgrid="false"
     inkscape:zoom="0.084436625"
     inkscape:cx="1402.9434"
     inkscape:cy="912.85903"
     inkscape:window-x="0"
     inkscape:window-y="25"
     inkscape:window-maximized="0"
     inkscape:current-layer="svg835" />
  <path
     d="M166.872 131.237l45.91-79.275 22.184 79.275-22.185 79.256-45.909-79.256zm-22.376 12.874l45.916 79.262-79.966-20.486-57.77-58.776h91.82zm45.906-105.033l-45.906 79.275h-91.82l57.77-58.78 79.956-20.495zm65.539 65.18L227.933.06l-104.54 27.925-15.475 27.207-31.401-.225L0 131.244l76.517 76.259h.003l31.388-.232 15.497 27.207 104.528 27.92L255.94 158.22l-15.906-26.982 15.906-26.978z"
     fill="#222C37"
     id="path833" />
  <path
     style="fill:#ffffff;stroke-width:96.9091;stroke-linejoin:round"
     d="m 1395.6499,2010.1186 -344.8247,-90.5874 -263.50686,-269.4328 -263.50683,-269.4329 424.76196,0.2317 424.76193,0.2317 201.3345,349.4336 c 110.7339,192.1885 203.1109,354.6322 205.2821,360.986 6.6704,19.5196 -27.9866,12.1761 -384.3021,-81.4299 z"
     id="path845"
     transform="scale(0.10521989)" />
  <path
     style="fill:#ffffff;stroke-width:96.9091;stroke-linejoin:round"
     d="m 1806.5992,1614.4587 c -113.448,-196.8242 -206.0117,-363.2557 -205.6972,-369.8477 0.7834,-16.4206 404.281,-709.99006 415.223,-713.7243 7.6339,-2.60524 204.4549,682.3399 205.05,713.582 0.3976,20.8762 -196.2326,728.1954 -202.3851,728.0206 -3.2568,-0.093 -98.7427,-161.2064 -212.1907,-358.0306 z"
     id="path847"
     transform="scale(0.10521989)" />
  <path
     style="fill:#ffffff;stroke-width:96.9091;stroke-linejoin:round"
     d="m 1806.5992,1614.7807 c -113.448,-196.7459 -206.085,-363.2177 -205.86,-369.9375 0.5533,-16.5246 403.8847,-710.18373 415.1202,-713.93371 9.6145,-3.20896 204.2003,677.18271 204.3643,714.58341 0.1253,28.5817 -193.4117,727.1442 -201.4338,727.0655 -3.2568,-0.032 -98.7427,-161.0319 -212.1907,-357.7777 z"
     id="path849"
     transform="scale(0.10521989)" />
  <path
     style="fill:#ffffff;stroke-width:96.9091;stroke-linejoin:round"
     d="M 583.65891,1052.1677 C 616.50365,1014.6305 738.33462,890.11782 854.3944,775.47286 l 211.0178,-208.44538 359.5673,-91.25889 c 197.762,-50.19239 360.8845,-89.62799 362.4943,-87.63467 1.61,1.99332 -91.4494,166.17217 -206.7986,364.84188 l -209.7259,361.2177 -423.50403,3.1118 -423.50406,3.1118 z"
     id="path851"
     transform="scale(0.10521989)" />
</svg>
